#!OML:ASF G:\JayActor3\Patient Classification 1\Patient 1\Session 5\male.ASF
:FULLY-SPECIFIED
:DEGREES
683
root -11.1081 16.7703 -7.11283 429.378 -84.3147 -433.693
lowerback 0.504082 -0.692867 6.96276
upperback 1.87495 -1.00087 0.807668
thorax 1.5526 -0.418961 -3.07578
lowerneck -6.129 -0.354506 1.77594
upperneck 4.60216 -0.760353 1.99708
head 2.51847 -0.287716 0.300629
rclavicle 3.70275e-015 -1.55052e-014
rhumerus -30.6056 -2.81906 -87.9165
rradius 32.346
rwrist -1.21693
rhand -18.6643 -8.39562
rfingers 7.12502
rthumb 7.62914 -38.238
lclavicle 3.70275e-015 -1.55052e-014
lhumerus -35.3871 4.20176 84.5356
lradius 32.7052
lwrist 19.5342
lhand -17.0566 13.6747
lfingers 7.12502
lthumb 9.18071 43.4549
rfemur -3.75614 1.61155 33.2323
rtibia 31.5176
rfoot -22.8621 -12.1165
rtoes 6.62231
lfemur -21.99 1.15112 -12.9017
ltibia 57.035
lfoot -12.7369 8.54197
ltoes -16.5075
684
root -11.2321 16.7645 -7.11838 430.141 -84.2156 -434.379
lowerback 0.502307 -0.677631 7.09206
upperback 1.88318 -0.98235 0.809684
thorax 1.5627 -0.407552 -3.14594
lowerneck -6.12564 -0.35618 1.75938
upperneck 4.55905 -0.761654 2.02337
head 2.50363 -0.288451 0.311784
rclavicle -1.98008e-015 -1.61016e-014
rhumerus -30.4581 -2.53707 -88.0751
rradius 32.6933
rwrist -1.43524
rhand -18.7074 -8.38795
rfingers 7.12502
rthumb 7.5876 -38.2318
lclavicle -1.98008e-015 -1.61016e-014
lhumerus -35.3218 4.07539 84.5703
lradius 32.995
lwrist 19.6437
lhand -17.1133 13.5687
lfingers 7.12502
lthumb 9.12603 43.3513
rfemur -3.1929 1.50921 33.4023
rtibia 31.2064
rfoot -23.046 -12.0384
rtoes 6.52282
lfemur -22.9013 1.10711 -12.951
ltibia 56.0801
lfoot -13.0363 8.65312
ltoes -16.4916
685
root -11.3566 16.7608 -7.12352 430.835 -84.1184 -434.99
lowerback 0.489672 -0.663117 7.21939
upperback 1.89255 -0.965779 0.810917
thorax 1.58 -0.396836 -3.21596
lowerneck -6.11823 -0.357305 1.74157
upperneck 4.50566 -0.761879 2.05196
head 2.48463 -0.288769 0.323919
rclavicle 1.6687e-015 8.94531e-016
rhumerus -30.3136 -2.28148 -88.2208
rradius 33.0207
rwrist -1.6343
rhand -18.7616 -8.36834
rfingers 7.12502
rthumb 7.53523 -38.2141
lclavicle 1.6687e-015 8.94531e-016
lhumerus -35.2397 3.9701 84.5998
lradius 33.2348
lwrist 19.739
lhand -17.1647 13.4637
lfingers 7.12502
lthumb 9.07643 43.2484
rfemur -2.59557 1.40479 33.5631
rtibia 30.8232
rfoot -23.2031 -11.967
rtoes 6.42434
lfemur -23.754 1.09036 -13.0121
ltibia 55.0312
lfoot -13.296 8.73656
ltoes -16.5696
686
root -11.4814 16.7585 -7.12833 431.513 -84.0175 -435.582
lowerback 0.471882 -0.648463 7.34956
upperback 1.90042 -0.949522 0.81413
thorax 1.5987 -0.386214 -3.28557
lowerneck -6.10407 -0.358423 1.73036
upperneck 4.44624 -0.761855 2.07318
head 2.4623 -0.2892 0.332565
rclavicle -1.07851e-014 4.35338e-014
rhumerus -30.1785 -2.04822 -88.3561
rradius 33.3278
rwrist -1.83136
rhand -18.8372 -8.33361
rfingers 7.12502
rthumb 7.46227 -38.182
lclavicle -1.07851e-014 4.35338e-014
lhumerus -35.1469 3.87849 84.6263
lradius 33.4255
lwrist 19.8209
lhand -17.2034 13.3725
lfingers 7.12502
lthumb 9.03903 43.1589
rfemur -1.97173 1.31083 33.727
rtibia 30.3824
rfoot -23.3335 -11.9055
rtoes 6.37916
lfemur -24.5457 1.10379 -13.0775
ltibia 53.8936
lfoot -13.5274 8.79812
ltoes -16.6758
687
root -11.6068 16.7572 -7.13272 432.215 -83.9155 -436.195
lowerback 0.445436 -0.631303 7.48334
upperback 1.90903 -0.930876 0.818002
thorax 1.62338 -0.374099 -3.35662
lowerneck -6.0889 -0.360534 1.72543
upperneck 4.3833 -0.763082 2.08665
head 2.43856 -0.290434 0.337598
rclavicle -1.81313e-016 1.71949e-014
rhumerus -30.0502 -1.84491 -88.4786
rradius 33.6162
rwrist -2.00556
rhand -18.8886 -8.31864
rfingers 7.12502
rthumb 7.41269 -38.1688
lclavicle -1.81313e-016 1.71949e-014
lhumerus -35.0426 3.79284 84.6513
lradius 33.5707
lwrist 19.8909
lhand -17.2244 13.2947
lfingers 7.12502
lthumb 9.0188 43.0819
rfemur -1.32838 1.21631 33.8906
rtibia 29.8978
rfoot -23.4267 -11.8548
rtoes 6.31503
lfemur -25.2735 1.15044 -13.1502
ltibia 52.6713
lfoot -13.7241 8.84549
ltoes -16.8263
688
root -11.7329 16.7563 -7.13665 432.949 -83.8144 -436.841
lowerback 0.416347 -0.611374 7.619
upperback 1.91625 -0.908845 0.82284
thorax 1.64861 -0.360253 -3.42769
lowerneck -6.07902 -0.363276 1.71901
upperneck 4.32836 -0.765308 2.09931
head 2.4185 -0.292076 0.342588
rclavicle -1.14845e-015 -9.34288e-015
rhumerus -29.9369 -1.66548 -88.5905
rradius 33.8871
rwrist -2.17507
rhand -18.9368 -8.2983
rfingers 7.12502
rthumb 7.36619 -38.1501
lclavicle -1.14845e-015 -9.34288e-015
lhumerus -34.936 3.70892 84.6771
lradius 33.6769
lwrist 19.9473
lhand -17.2298 13.2383
lfingers 7.12502
lthumb 9.0136 43.0258
rfemur -0.669186 1.10582 34.051
rtibia 29.3809
rfoot -23.5017 -11.8054
rtoes 6.26598
lfemur -25.9324 1.23012 -13.2329
ltibia 51.3689
lfoot -13.8808 8.89541
ltoes -17.0076
